<svg xmlns="http://www.w3.org/2000/svg" xmlns:xlink="http://www.w3.org/1999/xlink" width="1040" height="711.3"><rect width="1040" height="711.3" class="a" rx="5" ry="5"/><svg x="0%" y="0%"><circle cx="20" cy="20" r="6" fill="#ff5f58"/><circle cx="40" cy="20" r="6" fill="#ffbd2e"/><circle cx="60" cy="20" r="6" fill="#18c132"/></svg><svg xmlns="http://www.w3.org/2000/svg" xmlns:xlink="http://www.w3.org/1999/xlink" width="1000" height="651.3" x="15" y="50" viewBox="0 0 100 65.13"><style>@keyframes m{0%{transform:translateX(0)}3.3%{transform:translateX(-100px)}9.4%{transform:translateX(-200px)}9.8%{transform:translateX(-300px)}10.8%{transform:translateX(-400px)}11.5%{transform:translateX(-500px)}12.6%{transform:translateX(-600px)}15.8%{transform:translateX(-700px)}18.2%{transform:translateX(-800px)}19.2%{transform:translateX(-900px)}19.7%{transform:translateX(-1000px)}21.3%{transform:translateX(-1100px)}21.8%{transform:translateX(-1200px)}23.1%{transform:translateX(-1300px)}24.1%{transform:translateX(-1400px)}24.7%{transform:translateX(-1500px)}25.2%{transform:translateX(-1600px)}26.3%{transform:translateX(-1700px)}32.3%{transform:translateX(-1800px)}32.4%{transform:translateX(-2000px)}33.1%{transform:translateX(-2100px)}33.3%{transform:translateX(-2200px)}33.4%{transform:translateX(-2400px)}38.6%{transform:translateX(-2700px)}41.7%{transform:translateX(-2900px)}45.5%{transform:translateX(-3400px)}50.4%{transform:translateX(-3700px)}52.8%{transform:translateX(-3900px)}56.4%{transform:translateX(-4200px)}56.5%{transform:translateX(-4400px)}62.5%{transform:translateX(-4500px)}68.6%{transform:translateX(-5000px)}68.8%{transform:translateX(-5100px)}68.9%{transform:translateX(-5200px)}69%{transform:translateX(-5300px)}75%{transform:translateX(-5400px)}81%{transform:translateX(-5500px)}87.1%{transform:translateX(-5600px)}92.7%{transform:translateX(-5700px)}95.7%{transform:translateX(-5800px)}}.a{fill:#282d35}.f,.g{white-space:pre}.f{fill:#71bef2;font-weight:700}.g{fill:#b9c0cb}.h{fill:#a8cc8c}.h,.i,.j{white-space:pre}.i{fill:#b9c0cb;font-weight:700}.j{fill:#66c2cd}</style><g font-family="Monaco,Consolas,Menlo,'Bitstream Vera Sans Mono','Powerline Symbols',monospace" font-size="1.67"><defs><symbol id="1"><text y="1.67" class="f">letsencrypt-docker-compose</text><text x="26.052" y="1.67" class="g">$</text></symbol><symbol id="2"><text y="1.67" class="f">letsencrypt-docker-compose</text><text x="26.052" y="1.67" class="g">$</text><text x="28.056" y="1.67" class="g">./cli.sh</text></symbol><symbol id="3"><text y="1.67" class="f">letsencrypt-docker-compose</text><text x="26.052" y="1.67" class="g">$</text><text x="28.056" y="1.67" class="g">./cli.sh</text><text x="37.074" y="1.67" class="g">config</text></symbol><symbol id="4"><text y="1.67" class="g">Reading</text><text x="8.016" y="1.67" class="g">config</text><text x="15.03" y="1.67" class="g">./config.json</text></symbol><symbol id="5"><text y="1.67" class="g">Found</text><text x="6.012" y="1.67" class="g">an</text><text x="9.018" y="1.67" class="g">existing</text><text x="18.036" y="1.67" class="g">config</text></symbol><symbol id="6"><text y="1.67" class="g">Executing</text><text x="10.02" y="1.67" class="g">command:</text><text x="19.038" y="1.67" class="g">docker</text><text x="26.052" y="1.67" class="g">compose</text><text x="34.068" y="1.67" class="g">ps</text><text x="37.074" y="1.67" class="g">--format</text><text x="46.092" y="1.67" class="g">json</text></symbol><symbol id="7"><text y="1.67" class="h">?</text><text x="2.004" y="1.67" class="i">What</text><text x="7.014" y="1.67" class="i">do</text><text x="10.02" y="1.67" class="i">you</text><text x="14.028" y="1.67" class="i">want</text><text x="19.038" y="1.67" class="i">to</text><text x="22.044" y="1.67" class="i">do?</text><text x="26.052" y="1.67" class="g">(Use</text><text x="31.062" y="1.67" class="g">arrow</text><text x="37.074" y="1.67" class="g">keys)</text></symbol><symbol id="8"><text y="1.67" class="j">❯</text><text x="2.004" y="1.67" class="j">Switch</text><text x="9.018" y="1.67" class="j">to</text><text x="12.024" y="1.67" class="j">a</text><text x="14.028" y="1.67" class="j">Let&apos;s</text><text x="20.04" y="1.67" class="j">Encrypt</text><text x="28.056" y="1.67" class="j">production</text><text x="39.078" y="1.67" class="j">environment</text></symbol><symbol id="9"><text x="2.004" y="1.67" class="g">Add</text><text x="6.012" y="1.67" class="g">new</text><text x="10.02" y="1.67" class="g">domains</text></symbol><symbol id="10"><text x="2.004" y="1.67" class="g">Remove</text><text x="9.018" y="1.67" class="g">existing</text><text x="18.036" y="1.67" class="g">domains</text></symbol><symbol id="11"><text x="2.004" y="1.67" class="g">Manually</text><text x="11.022" y="1.67" class="g">renew</text><text x="17.034" y="1.67" class="g">all</text><text x="21.042" y="1.67" class="g">Let&apos;s</text><text x="27.054" y="1.67" class="g">Encrypt</text><text x="35.07" y="1.67" class="g">certificates</text><text x="48.096" y="1.67" class="g">(force</text><text x="55.11" y="1.67" class="g">renewal)</text></symbol><symbol id="12"><text x="2.004" y="1.67" class="g">Reload</text><text x="9.018" y="1.67" class="g">Nginx</text><text x="15.03" y="1.67" class="g">configuration</text><text x="29.058" y="1.67" class="g">without</text><text x="37.074" y="1.67" class="g">downtime</text></symbol><symbol id="13"><text y="1.67" class="h">?</text><text x="2.004" y="1.67" class="i">What</text><text x="7.014" y="1.67" class="i">do</text><text x="10.02" y="1.67" class="i">you</text><text x="14.028" y="1.67" class="i">want</text><text x="19.038" y="1.67" class="i">to</text><text x="22.044" y="1.67" class="i">do?</text></symbol><symbol id="14"><text x="2.004" y="1.67" class="g">Switch</text><text x="9.018" y="1.67" class="g">to</text><text x="12.024" y="1.67" class="g">a</text><text x="14.028" y="1.67" class="g">Let&apos;s</text><text x="20.04" y="1.67" class="g">Encrypt</text><text x="28.056" y="1.67" class="g">production</text><text x="39.078" y="1.67" class="g">environment</text></symbol><symbol id="15"><text y="1.67" class="j">❯</text><text x="2.004" y="1.67" class="j">Add</text><text x="6.012" y="1.67" class="j">new</text><text x="10.02" y="1.67" class="j">domains</text></symbol><symbol id="16"><text y="1.67" class="h">?</text><text x="2.004" y="1.67" class="i">What</text><text x="7.014" y="1.67" class="i">do</text><text x="10.02" y="1.67" class="i">you</text><text x="14.028" y="1.67" class="i">want</text><text x="19.038" y="1.67" class="i">to</text><text x="22.044" y="1.67" class="i">do?</text><text x="26.052" y="1.67" class="j">Switch</text><text x="33.066" y="1.67" class="j">to</text><text x="36.072" y="1.67" class="j">a</text><text x="38.076" y="1.67" class="j">Let&apos;s</text><text x="44.088" y="1.67" class="j">Encrypt</text><text x="52.104" y="1.67" class="j">production</text><text x="63.126" y="1.67" class="j">environment</text></symbol><symbol id="17"><text y="1.67" class="j">❯</text><text x="2.004" y="1.67" class="j">a.evgeniy-khyst.com</text></symbol><symbol id="18"><text x="2.004" y="1.67" class="g">b.evgeniy-khyst.com</text></symbol><symbol id="19"><text y="1.67" class="h">?</text><text x="2.004" y="1.67" class="i">Which</text><text x="8.016" y="1.67" class="i">domain</text><text x="15.03" y="1.67" class="i">should</text><text x="22.044" y="1.67" class="i">be</text><text x="25.05" y="1.67" class="i">switched</text><text x="34.068" y="1.67" class="i">to</text><text x="37.074" y="1.67" class="i">a</text><text x="39.078" y="1.67" class="i">Let&apos;s</text><text x="45.09" y="1.67" class="i">Encrypt</text><text x="53.106" y="1.67" class="i">production</text><text x="64.128" y="1.67" class="i">environment?</text></symbol><symbol id="20"><text x="2.004" y="1.67" class="g">a.evgeniy-khyst.com</text></symbol><symbol id="21"><text y="1.67" class="j">❯</text><text x="2.004" y="1.67" class="j">b.evgeniy-khyst.com</text></symbol><symbol id="22"><text y="1.67" class="h">?</text><text x="2.004" y="1.67" class="i">Which</text><text x="8.016" y="1.67" class="i">domain</text><text x="15.03" y="1.67" class="i">should</text><text x="22.044" y="1.67" class="i">be</text><text x="25.05" y="1.67" class="i">switched</text><text x="34.068" y="1.67" class="i">to</text><text x="37.074" y="1.67" class="i">a</text><text x="39.078" y="1.67" class="i">Let&apos;s</text><text x="45.09" y="1.67" class="i">Encrypt</text><text x="53.106" y="1.67" class="i">production</text><text x="64.128" y="1.67" class="i">environment?</text><text x="77.154" y="1.67" class="j">a.evgeniy-khyst.com</text></symbol><symbol id="23"><text y="1.67" class="h">?</text><text x="2.004" y="1.67" class="i">Are</text><text x="6.012" y="1.67" class="i">the</text><text x="10.02" y="1.67" class="i">entered</text><text x="18.036" y="1.67" class="i">data</text><text x="23.046" y="1.67" class="i">correct?</text><text x="32.064" y="1.67" class="g">(y/N)</text></symbol><symbol id="24"><text y="1.67" class="h">?</text><text x="2.004" y="1.67" class="i">Are</text><text x="6.012" y="1.67" class="i">the</text><text x="10.02" y="1.67" class="i">entered</text><text x="18.036" y="1.67" class="i">data</text><text x="23.046" y="1.67" class="i">correct?</text><text x="32.064" y="1.67" class="j">Yes</text></symbol><symbol id="25"><text y="1.67" class="g">Writing</text><text x="8.016" y="1.67" class="g">config</text><text x="15.03" y="1.67" class="g">./config.json</text></symbol><symbol id="26"><text y="1.67" class="g">Compiling</text><text x="10.02" y="1.67" class="g">template</text><text x="19.038" y="1.67" class="g">./templates/nginx.conf.hbs</text></symbol><symbol id="27"><text y="1.67" class="g">Compiling</text><text x="10.02" y="1.67" class="g">template</text><text x="19.038" y="1.67" class="g">./templates/servers.conf.hbs</text></symbol><symbol id="28"><text y="1.67" class="g">Writing</text><text x="8.016" y="1.67" class="g">./nginx-conf/nginx.conf</text></symbol><symbol id="29"><text y="1.67" class="g">Writing</text><text x="8.016" y="1.67" class="g">./nginx-conf/conf.d/a.evgeniy-khyst.com.conf</text></symbol><symbol id="30"><text y="1.67" class="g">Writing</text><text x="8.016" y="1.67" class="g">./nginx-conf/conf.d/b.evgeniy-khyst.com.conf</text></symbol><symbol id="31"><text y="1.67" class="g">Executing</text><text x="10.02" y="1.67" class="g">command:</text><text x="19.038" y="1.67" class="g">docker</text><text x="26.052" y="1.67" class="g">compose</text><text x="34.068" y="1.67" class="g">exec</text><text x="39.078" y="1.67" class="g">--no-TTY</text><text x="48.096" y="1.67" class="g">certbot</text><text x="56.112" y="1.67" class="g">certbot</text><text x="64.128" y="1.67" class="g">--noninteractive</text><text x="81.162" y="1.67" class="g">delete</text><text x="88.176" y="1.67" class="g">--cert-name</text></symbol><symbol id="32"><text y="1.67" class="g">a.evgeniy-khyst.com</text></symbol><symbol id="33"><text y="1.67" class="g">Executing</text><text x="10.02" y="1.67" class="g">command:</text><text x="19.038" y="1.67" class="g">docker</text><text x="26.052" y="1.67" class="g">compose</text><text x="34.068" y="1.67" class="g">exec</text><text x="39.078" y="1.67" class="g">--no-TTY</text><text x="48.096" y="1.67" class="g">nginx</text><text x="54.108" y="1.67" class="g">/letsencrypt-docker-compose/config-nginx.sh</text></symbol><symbol id="34"><text y="1.67" class="g">Executing</text><text x="10.02" y="1.67" class="g">command:</text><text x="19.038" y="1.67" class="g">docker</text><text x="26.052" y="1.67" class="g">compose</text><text x="34.068" y="1.67" class="g">exec</text><text x="39.078" y="1.67" class="g">--no-TTY</text><text x="48.096" y="1.67" class="g">certbot</text><text x="56.112" y="1.67" class="g">/letsencrypt-docker-compose/certbot-certonly</text></symbol><symbol id="35"><text y="1.67" class="g">.sh</text></symbol><symbol id="a"><path fill="transparent" d="M0 0h100v31H0z"/></symbol><symbol id="b"><path fill="#6f7683" d="M0 0h1.102v2.171H0z"/></symbol></defs><path d="M0 0h100v65.13H0z" class="a"/><g style="animation-duration:16.527405s;animation-iteration-count:infinite;animation-name:m;animation-timing-function:steps(1,end)"><svg width="6000"><svg><use xlink:href="#a"/><use x="-.004" xlink:href="#b"/></svg><svg x="100"><use xlink:href="#a"/><use x="27.996" xlink:href="#b"/><use xlink:href="#1"/></svg><svg x="200"><use xlink:href="#a"/><use x="28.996" xlink:href="#b"/><text y="1.67" class="f">letsencrypt-docker-compose</text><text x="26.052" y="1.67" class="g">$</text><text x="28.056" y="1.67" class="g">.</text></svg><svg x="300"><use xlink:href="#a"/><use x="29.996" xlink:href="#b"/><text y="1.67" class="f">letsencrypt-docker-compose</text><text x="26.052" y="1.67" class="g">$</text><text x="28.056" y="1.67" class="g">./</text></svg><svg x="400"><use xlink:href="#a"/><use x="30.996" xlink:href="#b"/><text y="1.67" class="f">letsencrypt-docker-compose</text><text x="26.052" y="1.67" class="g">$</text><text x="28.056" y="1.67" class="g">./c</text></svg><svg x="500"><use xlink:href="#a"/><use x="31.996" xlink:href="#b"/><text y="1.67" class="f">letsencrypt-docker-compose</text><text x="26.052" y="1.67" class="g">$</text><text x="28.056" y="1.67" class="g">./cl</text></svg><svg x="600"><use xlink:href="#a"/><use x="32.996" xlink:href="#b"/><text y="1.67" class="f">letsencrypt-docker-compose</text><text x="26.052" y="1.67" class="g">$</text><text x="28.056" y="1.67" class="g">./cli</text></svg><svg x="700"><use xlink:href="#a"/><use x="33.996" xlink:href="#b"/><text y="1.67" class="f">letsencrypt-docker-compose</text><text x="26.052" y="1.67" class="g">$</text><text x="28.056" y="1.67" class="g">./cli.</text></svg><svg x="800"><use xlink:href="#a"/><use x="34.996" xlink:href="#b"/><text y="1.67" class="f">letsencrypt-docker-compose</text><text x="26.052" y="1.67" class="g">$</text><text x="28.056" y="1.67" class="g">./cli.s</text></svg><svg x="900"><use xlink:href="#a"/><use x="35.996" xlink:href="#b"/><use xlink:href="#2"/></svg><svg x="1000"><use xlink:href="#a"/><use x="36.996" xlink:href="#b"/><use xlink:href="#2"/></svg><svg x="1100"><use xlink:href="#a"/><use x="37.996" xlink:href="#b"/><text y="1.67" class="f">letsencrypt-docker-compose</text><text x="26.052" y="1.67" class="g">$</text><text x="28.056" y="1.67" class="g">./cli.sh</text><text x="37.074" y="1.67" class="g">c</text></svg><svg x="1200"><use xlink:href="#a"/><use x="38.996" xlink:href="#b"/><text y="1.67" class="f">letsencrypt-docker-compose</text><text x="26.052" y="1.67" class="g">$</text><text x="28.056" y="1.67" class="g">./cli.sh</text><text x="37.074" y="1.67" class="g">co</text></svg><svg x="1300"><use xlink:href="#a"/><use x="39.996" xlink:href="#b"/><text y="1.67" class="f">letsencrypt-docker-compose</text><text x="26.052" y="1.67" class="g">$</text><text x="28.056" y="1.67" class="g">./cli.sh</text><text x="37.074" y="1.67" class="g">con</text></svg><svg x="1400"><use xlink:href="#a"/><use x="40.996" xlink:href="#b"/><text y="1.67" class="f">letsencrypt-docker-compose</text><text x="26.052" y="1.67" class="g">$</text><text x="28.056" y="1.67" class="g">./cli.sh</text><text x="37.074" y="1.67" class="g">conf</text></svg><svg x="1500"><use xlink:href="#a"/><use x="41.996" xlink:href="#b"/><text y="1.67" class="f">letsencrypt-docker-compose</text><text x="26.052" y="1.67" class="g">$</text><text x="28.056" y="1.67" class="g">./cli.sh</text><text x="37.074" y="1.67" class="g">confi</text></svg><svg x="1600"><use xlink:href="#a"/><use x="42.996" xlink:href="#b"/><use xlink:href="#3"/></svg><svg x="1700"><use xlink:href="#a"/><use x="-.004" y="2.146" xlink:href="#b"/><use xlink:href="#3"/></svg><svg x="1800"><use xlink:href="#a"/><use x="-.004" y="4.317" xlink:href="#b"/><use xlink:href="#3"/><use y="2.171" xlink:href="#4"/></svg><svg x="1900"><use xlink:href="#a"/><use x="-.004" y="6.488" xlink:href="#b"/><use xlink:href="#3"/><use y="2.171" xlink:href="#4"/><use y="4.342" xlink:href="#5"/></svg><svg x="2000"><use xlink:href="#a"/><use x="-.004" y="8.659" xlink:href="#b"/><use xlink:href="#3"/><use y="2.171" xlink:href="#4"/><use y="4.342" xlink:href="#5"/><use y="6.513" xlink:href="#6"/></svg><svg x="2100"><use xlink:href="#a"/><use x="-.004" y="10.83" xlink:href="#b"/><use xlink:href="#3"/><use y="2.171" xlink:href="#4"/><use y="4.342" xlink:href="#5"/><use y="6.513" xlink:href="#6"/></svg><svg x="2200"><use xlink:href="#a"/><use xlink:href="#3"/><use y="2.171" xlink:href="#4"/><use y="4.342" xlink:href="#5"/><use y="6.513" xlink:href="#6"/></svg><svg x="2300"><use xlink:href="#a"/><use xlink:href="#3"/><use y="2.171" xlink:href="#4"/><use y="4.342" xlink:href="#5"/><use y="6.513" xlink:href="#6"/><use y="10.855" xlink:href="#7"/><use y="13.026" xlink:href="#8"/><use y="15.197" xlink:href="#9"/><use y="17.368" xlink:href="#10"/><use y="19.539" xlink:href="#11"/><use y="21.71" xlink:href="#12"/></svg><svg x="2400"><use xlink:href="#a"/><use xlink:href="#3"/><use y="2.171" xlink:href="#4"/><use y="4.342" xlink:href="#5"/><use y="6.513" xlink:href="#6"/><use y="10.855" xlink:href="#7"/><use y="13.026" xlink:href="#8"/><use y="15.197" xlink:href="#9"/><use y="17.368" xlink:href="#10"/><use y="19.539" xlink:href="#11"/><use y="21.71" xlink:href="#12"/></svg><svg x="2500"><use xlink:href="#a"/><use xlink:href="#3"/><use y="2.171" xlink:href="#4"/><use y="4.342" xlink:href="#5"/><use y="6.513" xlink:href="#6"/></svg><svg x="2600"><use xlink:href="#a"/><use xlink:href="#3"/><use y="2.171" xlink:href="#4"/><use y="4.342" xlink:href="#5"/><use y="6.513" xlink:href="#6"/><use y="10.855" xlink:href="#13"/><use y="13.026" xlink:href="#14"/><use y="15.197" xlink:href="#15"/><use y="17.368" xlink:href="#10"/><use y="19.539" xlink:href="#11"/><use y="21.71" xlink:href="#12"/></svg><svg x="2700"><use xlink:href="#a"/><use xlink:href="#3"/><use y="2.171" xlink:href="#4"/><use y="4.342" xlink:href="#5"/><use y="6.513" xlink:href="#6"/><use y="10.855" xlink:href="#13"/><use y="13.026" xlink:href="#14"/><use y="15.197" xlink:href="#15"/><use y="17.368" xlink:href="#10"/><use y="19.539" xlink:href="#11"/><use y="21.71" xlink:href="#12"/></svg><svg x="2800"><use xlink:href="#a"/><use xlink:href="#3"/><use y="2.171" xlink:href="#4"/><use y="4.342" xlink:href="#5"/><use y="6.513" xlink:href="#6"/></svg><svg x="2900"><use xlink:href="#a"/><use xlink:href="#3"/><use y="2.171" xlink:href="#4"/><use y="4.342" xlink:href="#5"/><use y="6.513" xlink:href="#6"/><use y="10.855" xlink:href="#13"/><use y="13.026" xlink:href="#8"/><use y="15.197" xlink:href="#9"/><use y="17.368" xlink:href="#10"/><use y="19.539" xlink:href="#11"/><use y="21.71" xlink:href="#12"/></svg><svg x="3000"><use xlink:href="#a"/><use xlink:href="#3"/><use y="2.171" xlink:href="#4"/><use y="4.342" xlink:href="#5"/><use y="6.513" xlink:href="#6"/></svg><svg x="3100"><use xlink:href="#a"/><use xlink:href="#3"/><use y="2.171" xlink:href="#4"/><use y="4.342" xlink:href="#5"/><use y="6.513" xlink:href="#6"/><use y="10.855" xlink:href="#16"/></svg><svg x="3200"><use xlink:href="#a"/><use x="-.004" y="13.001" xlink:href="#b"/><use xlink:href="#3"/><use y="2.171" xlink:href="#4"/><use y="4.342" xlink:href="#5"/><use y="6.513" xlink:href="#6"/><use y="10.855" xlink:href="#16"/></svg><svg x="3300"><use xlink:href="#a"/><use xlink:href="#3"/><use y="2.171" xlink:href="#4"/><use y="4.342" xlink:href="#5"/><use y="6.513" xlink:href="#6"/><use y="10.855" xlink:href="#16"/></svg><svg x="3400"><use xlink:href="#a"/><use xlink:href="#3"/><use y="2.171" xlink:href="#4"/><use y="4.342" xlink:href="#5"/><use y="6.513" xlink:href="#6"/><use y="10.855" xlink:href="#16"/><text y="14.696" class="h">?</text><text x="2.004" y="14.696" class="i">Which</text><text x="8.016" y="14.696" class="i">domain</text><text x="15.03" y="14.696" class="i">should</text><text x="22.044" y="14.696" class="i">be</text><text x="25.05" y="14.696" class="i">switched</text><text x="34.068" y="14.696" class="i">to</text><text x="37.074" y="14.696" class="i">a</text><text x="39.078" y="14.696" class="i">Let&apos;s</text><text x="45.09" y="14.696" class="i">Encrypt</text><text x="53.106" y="14.696" class="i">production</text><text x="64.128" y="14.696" class="i">environment?</text><text x="77.154" y="14.696" class="g">(Use</text><text x="82.164" y="14.696" class="g">arrow</text><text x="88.176" y="14.696" class="g">keys)</text><use y="15.197" xlink:href="#17"/><use y="17.368" xlink:href="#18"/></svg><svg x="3500"><use xlink:href="#a"/><use xlink:href="#3"/><use y="2.171" xlink:href="#4"/><use y="4.342" xlink:href="#5"/><use y="6.513" xlink:href="#6"/><use y="10.855" xlink:href="#16"/></svg><svg x="3600"><use xlink:href="#a"/><use xlink:href="#3"/><use y="2.171" xlink:href="#4"/><use y="4.342" xlink:href="#5"/><use y="6.513" xlink:href="#6"/><use y="10.855" xlink:href="#16"/><use y="13.026" xlink:href="#19"/><use y="15.197" xlink:href="#20"/><use y="17.368" xlink:href="#21"/></svg><svg x="3700"><use xlink:href="#a"/><use xlink:href="#3"/><use y="2.171" xlink:href="#4"/><use y="4.342" xlink:href="#5"/><use y="6.513" xlink:href="#6"/><use y="10.855" xlink:href="#16"/><use y="13.026" xlink:href="#19"/><use y="15.197" xlink:href="#20"/><use y="17.368" xlink:href="#21"/></svg><svg x="3800"><use xlink:href="#a"/><use xlink:href="#3"/><use y="2.171" xlink:href="#4"/><use y="4.342" xlink:href="#5"/><use y="6.513" xlink:href="#6"/><use y="10.855" xlink:href="#16"/></svg><svg x="3900"><use xlink:href="#a"/><use xlink:href="#3"/><use y="2.171" xlink:href="#4"/><use y="4.342" xlink:href="#5"/><use y="6.513" xlink:href="#6"/><use y="10.855" xlink:href="#16"/><use y="13.026" xlink:href="#19"/><use y="15.197" xlink:href="#17"/><use y="17.368" xlink:href="#18"/></svg><svg x="4000"><use xlink:href="#a"/><use xlink:href="#3"/><use y="2.171" xlink:href="#4"/><use y="4.342" xlink:href="#5"/><use y="6.513" xlink:href="#6"/><use y="10.855" xlink:href="#16"/></svg><svg x="4100"><use xlink:href="#a"/><use xlink:href="#3"/><use y="2.171" xlink:href="#4"/><use y="4.342" xlink:href="#5"/><use y="6.513" xlink:href="#6"/><use y="10.855" xlink:href="#16"/><use y="13.026" xlink:href="#22"/></svg><svg x="4200"><use xlink:href="#a"/><use x="-.004" y="15.172" xlink:href="#b"/><use xlink:href="#3"/><use y="2.171" xlink:href="#4"/><use y="4.342" xlink:href="#5"/><use y="6.513" xlink:href="#6"/><use y="10.855" xlink:href="#16"/><use y="13.026" xlink:href="#22"/></svg><svg x="4300"><use xlink:href="#a"/><use x="-.004" y="15.172" xlink:href="#b"/><use xlink:href="#3"/><use y="2.171" xlink:href="#4"/><use y="4.342" xlink:href="#5"/><use y="6.513" xlink:href="#6"/><use y="10.855" xlink:href="#16"/><use y="13.026" xlink:href="#22"/><use y="15.197" xlink:href="#23"/></svg><svg x="4400"><use xlink:href="#a"/><use x="37.996" y="15.172" xlink:href="#b"/><use xlink:href="#3"/><use y="2.171" xlink:href="#4"/><use y="4.342" xlink:href="#5"/><use y="6.513" xlink:href="#6"/><use y="10.855" xlink:href="#16"/><use y="13.026" xlink:href="#22"/><use y="15.197" xlink:href="#23"/></svg><svg x="4500"><use xlink:href="#a"/><use x="38.996" y="15.172" xlink:href="#b"/><use xlink:href="#3"/><use y="2.171" xlink:href="#4"/><use y="4.342" xlink:href="#5"/><use y="6.513" xlink:href="#6"/><use y="10.855" xlink:href="#16"/><use y="13.026" xlink:href="#22"/><text y="16.867" class="h">?</text><text x="2.004" y="16.867" class="i">Are</text><text x="6.012" y="16.867" class="i">the</text><text x="10.02" y="16.867" class="i">entered</text><text x="18.036" y="16.867" class="i">data</text><text x="23.046" y="16.867" class="i">correct?</text><text x="32.064" y="16.867" class="g">(y/N)</text><text x="38.076" y="16.867" class="g">y</text></svg><svg x="4600"><use xlink:href="#a"/><use x="-.004" y="15.172" xlink:href="#b"/><use xlink:href="#3"/><use y="2.171" xlink:href="#4"/><use y="4.342" xlink:href="#5"/><use y="6.513" xlink:href="#6"/><use y="10.855" xlink:href="#16"/><use y="13.026" xlink:href="#22"/></svg><svg x="4700"><use xlink:href="#a"/><use x="-.004" y="17.343" xlink:href="#b"/><use xlink:href="#3"/><use y="2.171" xlink:href="#4"/><use y="4.342" xlink:href="#5"/><use y="6.513" xlink:href="#6"/><use y="10.855" xlink:href="#16"/><use y="13.026" xlink:href="#22"/><use y="15.197" xlink:href="#24"/></svg><svg x="4800"><use xlink:href="#a"/><use x="-.004" y="19.514" xlink:href="#b"/><use xlink:href="#3"/><use y="2.171" xlink:href="#4"/><use y="4.342" xlink:href="#5"/><use y="6.513" xlink:href="#6"/><use y="10.855" xlink:href="#16"/><use y="13.026" xlink:href="#22"/><use y="15.197" xlink:href="#24"/><use y="17.368" xlink:href="#25"/></svg><svg x="4900"><use xlink:href="#a"/><use x="-.004" y="21.685" xlink:href="#b"/><use xlink:href="#3"/><use y="2.171" xlink:href="#4"/><use y="4.342" xlink:href="#5"/><use y="6.513" xlink:href="#6"/><use y="10.855" xlink:href="#16"/><use y="13.026" xlink:href="#22"/><use y="15.197" xlink:href="#24"/><use y="17.368" xlink:href="#25"/><use y="19.539" xlink:href="#26"/></svg><svg x="5000"><use xlink:href="#a"/><use x="-.004" y="23.856" xlink:href="#b"/><use xlink:href="#3"/><use y="2.171" xlink:href="#4"/><use y="4.342" xlink:href="#5"/><use y="6.513" xlink:href="#6"/><use y="10.855" xlink:href="#16"/><use y="13.026" xlink:href="#22"/><use y="15.197" xlink:href="#24"/><use y="17.368" xlink:href="#25"/><use y="19.539" xlink:href="#26"/><use y="21.71" xlink:href="#27"/></svg><svg x="5100"><use xlink:href="#a"/><use x="-.004" y="26.027" xlink:href="#b"/><use xlink:href="#3"/><use y="2.171" xlink:href="#4"/><use y="4.342" xlink:href="#5"/><use y="6.513" xlink:href="#6"/><use y="10.855" xlink:href="#16"/><use y="13.026" xlink:href="#22"/><use y="15.197" xlink:href="#24"/><use y="17.368" xlink:href="#25"/><use y="19.539" xlink:href="#26"/><use y="21.71" xlink:href="#27"/><use y="23.881" xlink:href="#28"/></svg><svg x="5200"><use xlink:href="#a"/><use x="-.004" y="28.198" xlink:href="#b"/><use xlink:href="#3"/><use y="2.171" xlink:href="#4"/><use y="4.342" xlink:href="#5"/><use y="6.513" xlink:href="#6"/><use y="10.855" xlink:href="#16"/><use y="13.026" xlink:href="#22"/><use y="15.197" xlink:href="#24"/><use y="17.368" xlink:href="#25"/><use y="19.539" xlink:href="#26"/><use y="21.71" xlink:href="#27"/><use y="23.881" xlink:href="#28"/><use y="26.052" xlink:href="#29"/></svg><svg x="5300"><use xlink:href="#a"/><use x="-.004" y="30.369" xlink:href="#b"/><use xlink:href="#3"/><use y="2.171" xlink:href="#4"/><use y="4.342" xlink:href="#5"/><use y="6.513" xlink:href="#6"/><use y="10.855" xlink:href="#16"/><use y="13.026" xlink:href="#22"/><use y="15.197" xlink:href="#24"/><use y="17.368" xlink:href="#25"/><use y="19.539" xlink:href="#26"/><use y="21.71" xlink:href="#27"/><use y="23.881" xlink:href="#28"/><use y="26.052" xlink:href="#29"/><use y="28.223" xlink:href="#30"/></svg><svg x="5400"><use xlink:href="#a"/><use x="-.004" y="34.711" xlink:href="#b"/><use xlink:href="#3"/><use y="2.171" xlink:href="#4"/><use y="4.342" xlink:href="#5"/><use y="6.513" xlink:href="#6"/><use y="10.855" xlink:href="#16"/><use y="13.026" xlink:href="#22"/><use y="15.197" xlink:href="#24"/><use y="17.368" xlink:href="#25"/><use y="19.539" xlink:href="#26"/><use y="21.71" xlink:href="#27"/><use y="23.881" xlink:href="#28"/><use y="26.052" xlink:href="#29"/><use y="28.223" xlink:href="#30"/><use y="30.394" xlink:href="#31"/><use y="32.565" xlink:href="#32"/></svg><svg x="5500"><use xlink:href="#a"/><use x="-.004" y="36.882" xlink:href="#b"/><use xlink:href="#3"/><use y="2.171" xlink:href="#4"/><use y="4.342" xlink:href="#5"/><use y="6.513" xlink:href="#6"/><use y="10.855" xlink:href="#16"/><use y="13.026" xlink:href="#22"/><use y="15.197" xlink:href="#24"/><use y="17.368" xlink:href="#25"/><use y="19.539" xlink:href="#26"/><use y="21.71" xlink:href="#27"/><use y="23.881" xlink:href="#28"/><use y="26.052" xlink:href="#29"/><use y="28.223" xlink:href="#30"/><use y="30.394" xlink:href="#31"/><use y="32.565" xlink:href="#32"/><use y="34.736" xlink:href="#33"/></svg><svg x="5600"><use xlink:href="#a"/><use x="-.004" y="41.224" xlink:href="#b"/><use xlink:href="#3"/><use y="2.171" xlink:href="#4"/><use y="4.342" xlink:href="#5"/><use y="6.513" xlink:href="#6"/><use y="10.855" xlink:href="#16"/><use y="13.026" xlink:href="#22"/><use y="15.197" xlink:href="#24"/><use y="17.368" xlink:href="#25"/><use y="19.539" xlink:href="#26"/><use y="21.71" xlink:href="#27"/><use y="23.881" xlink:href="#28"/><use y="26.052" xlink:href="#29"/><use y="28.223" xlink:href="#30"/><use y="30.394" xlink:href="#31"/><use y="32.565" xlink:href="#32"/><use y="34.736" xlink:href="#33"/><use y="36.907" xlink:href="#34"/><use y="39.078" xlink:href="#35"/></svg><svg x="5700"><use xlink:href="#a"/><use x="-.004" y="43.395" xlink:href="#b"/><use xlink:href="#3"/><use y="2.171" xlink:href="#4"/><use y="4.342" xlink:href="#5"/><use y="6.513" xlink:href="#6"/><use y="10.855" xlink:href="#16"/><use y="13.026" xlink:href="#22"/><use y="15.197" xlink:href="#24"/><use y="17.368" xlink:href="#25"/><use y="19.539" xlink:href="#26"/><use y="21.71" xlink:href="#27"/><use y="23.881" xlink:href="#28"/><use y="26.052" xlink:href="#29"/><use y="28.223" xlink:href="#30"/><use y="30.394" xlink:href="#31"/><use y="32.565" xlink:href="#32"/><use y="34.736" xlink:href="#33"/><use y="36.907" xlink:href="#34"/><use y="39.078" xlink:href="#35"/><use y="41.249" xlink:href="#33"/></svg><svg x="5800"><use xlink:href="#a"/><use x="27.996" y="43.395" xlink:href="#b"/><use xlink:href="#3"/><use y="2.171" xlink:href="#4"/><use y="4.342" xlink:href="#5"/><use y="6.513" xlink:href="#6"/><use y="10.855" xlink:href="#16"/><use y="13.026" xlink:href="#22"/><use y="15.197" xlink:href="#24"/><use y="17.368" xlink:href="#25"/><use y="19.539" xlink:href="#26"/><use y="21.71" xlink:href="#27"/><use y="23.881" xlink:href="#28"/><use y="26.052" xlink:href="#29"/><use y="28.223" xlink:href="#30"/><use y="30.394" xlink:href="#31"/><use y="32.565" xlink:href="#32"/><use y="34.736" xlink:href="#33"/><use y="36.907" xlink:href="#34"/><use y="39.078" xlink:href="#35"/><use y="41.249" xlink:href="#33"/><use y="43.42" xlink:href="#1"/></svg><svg x="5900"><use xlink:href="#a"/><use x="-.004" y="47.737" xlink:href="#b"/><use xlink:href="#3"/><use y="2.171" xlink:href="#4"/><use y="4.342" xlink:href="#5"/><use y="6.513" xlink:href="#6"/><use y="10.855" xlink:href="#16"/><use y="13.026" xlink:href="#22"/><use y="15.197" xlink:href="#24"/><use y="17.368" xlink:href="#25"/><use y="19.539" xlink:href="#26"/><use y="21.71" xlink:href="#27"/><use y="23.881" xlink:href="#28"/><use y="26.052" xlink:href="#29"/><use y="28.223" xlink:href="#30"/><use y="30.394" xlink:href="#31"/><use y="32.565" xlink:href="#32"/><use y="34.736" xlink:href="#33"/><use y="36.907" xlink:href="#34"/><use y="39.078" xlink:href="#35"/><use y="41.249" xlink:href="#33"/><use y="43.42" xlink:href="#1"/><text y="47.261" class="g">exit</text></svg></svg></g></g></svg></svg>